name Walk3.mot
datacolumns 19
datarows 30
range 1.56000000 1.70500000
endheader

                time	   L_ground_force_vx	   L_ground_force_vy	   L_ground_force_vz	   L_ground_force_px	   L_ground_force_py	   L_ground_force_pz	   R_ground_force_vx	   R_ground_force_vy	   R_ground_force_vz	   R_ground_force_px	   R_ground_force_py	   R_ground_force_pz	   L_ground_torque_x	   L_ground_torque_y	   L_ground_torque_z	   R_ground_torque_x	   R_ground_torque_y	   R_ground_torque_z	
          1.56000000	          8.74744995	        623.78603432	         31.62037033	         -0.35839385	          0.00000000	         -0.04278700	         -0.02203933	          0.15137690	          0.00182207	          0.00007524	          0.00000000	          0.00006399	          0.00000000	         -2.36445014	          0.00000000	          0.00000000	         -0.00013910	          0.00000000	
          1.56500000	          9.48311273	        628.10478704	         32.23247064	         -0.35559097	          0.00000000	         -0.04301053	         -0.03238157	          0.21339601	          0.00226618	          0.00009504	          0.00000000	          0.00008063	          0.00000000	         -2.44795850	          0.00000000	          0.00000000	         -0.00019514	          0.00000000	
          1.57000000	         10.19847403	        633.07395041	         32.91524225	         -0.35274766	          0.00000000	         -0.04326350	         -0.04451548	          0.28378964	          0.00267923	          0.00011420	          0.00000000	          0.00009663	          0.00000000	         -2.52154713	          0.00000000	          0.00000000	         -0.00025845	          0.00000000	
          1.57500000	         10.93091506	        638.71552424	         33.67008818	         -0.34988664	          0.00000000	         -0.04354587	         -0.05794685	          0.35856081	          0.00299291	          0.00013000	          0.00000000	          0.00010966	          0.00000000	         -2.58207331	          0.00000000	          0.00000000	         -0.00032531	          0.00000000	
          1.58000000	         11.73513811	        645.02165148	         34.49519833	         -0.34703374	          0.00000000	         -0.04385766	         -0.07174498	          0.43093684	          0.00311294	          0.00013859	          0.00000000	          0.00011645	          0.00000000	         -2.62633075	          0.00000000	          0.00000000	         -0.00038944	          0.00000000	
          1.58500000	         12.67674223	        651.95492455	         35.38731418	         -0.34421645	          0.00000000	         -0.04419795	         -0.08441333	          0.49065194	          0.00291620	          0.00013490	          0.00000000	          0.00011269	          0.00000000	         -2.65122720	          0.00000000	          0.00000000	         -0.00044142	          0.00000000	
          1.59000000	         13.82422164	        659.45647375	         36.34258494	         -0.34146323	          0.00000000	         -0.04456474	         -0.09375758	          0.52325928	          0.00224976	          0.00011252	          0.00000000	          0.00009293	          0.00000000	         -2.65403554	          0.00000000	          0.00000000	         -0.00046804	          0.00000000	
          1.59500000	         15.24221470	        667.45647284	         37.35589080	         -0.33880220	          0.00000000	         -0.04495410	         -0.09676585	          0.50957396	          0.00093307	          0.00006373	          0.00000000	          0.00005064	          0.00000000	         -2.63250329	          0.00000000	          0.00000000	         -0.00045182	          0.00000000	
          1.60000000	         16.98620258	        675.88071651	         38.42017287	         -0.33625875	          0.00000000	         -0.04535998	         -0.08952296	          0.42538856	         -0.00123523	         -0.00002021	          0.00000000	         -0.00002154	          0.00000000	         -2.58516684	          0.00000000	          0.00000000	         -0.00037081	          0.00000000	
          1.60500000	         19.09928008	        684.65470079	         39.52621414	         -0.33385511	          0.00000000	         -0.04577410	         -0.06718784	          0.24164920	         -0.00446408	         -0.00014860	          0.00000000	         -0.00013144	          0.00000000	         -2.51173995	          0.00000000	          0.00000000	         -0.00019875	          0.00000000	
          1.61000000	         21.61067701	        693.70853633	         40.66091525	         -0.33160955	          0.00000000	         -0.04618731	         -0.02407275	         -0.07467236	         -0.00894855	         -0.00033050	          0.00000000	         -0.00028661	          0.00000000	         -2.41338584	          0.00000000	          0.00000000	          0.00009407	          0.00000000	
          1.61500000	         24.53543635	        702.97703374	         41.80337220	         -0.32953566	          0.00000000	         -0.04658956	          0.04612888	         -0.55872858	         -0.01483793	         -0.00057338	          0.00000000	         -0.00049323	          0.00000000	         -2.29324049	          0.00000000	          0.00000000	          0.00053908	          0.00000000	
          1.62000000	         27.87396423	        712.39151691	         42.92063044	         -0.32764229	          0.00000000	         -0.04696798	          0.14991089	         -1.24464911	         -0.02219178	         -0.00088141	          0.00000000	         -0.00075460	          0.00000000	         -2.15702767	          0.00000000	          0.00000000	          0.00116654	          0.00000000	
          1.62500000	         31.61159223	        721.86579748	         43.96301621	         -0.32593284	          0.00000000	         -0.04730810	          0.29325824	         -2.16075948	         -0.03092235	         -0.00125304	          0.00000000	         -0.00106911	          0.00000000	         -2.01366332	          0.00000000	          0.00000000	          0.00200112	          0.00000000	
          1.63000000	         35.71552449	        731.29059347	         44.86342038	         -0.32440461	          0.00000000	         -0.04759573	          0.48062420	         -3.32284108	         -0.04072303	         -0.00167803	          0.00000000	         -0.00142770	          0.00000000	         -1.87540630	          0.00000000	          0.00000000	          0.00305576	          0.00000000	
          1.63500000	         40.12625894	        740.53160427	         45.55893190	         -0.32304657	          0.00000000	         -0.04782022	          0.71352443	         -4.72516794	         -0.05098372	         -0.00213379	          0.00000000	         -0.00181080	          0.00000000	         -1.75526155	          0.00000000	          0.00000000	          0.00432347	          0.00000000	
          1.64000000	         44.76983794	        749.42905415	         46.01254292	         -0.32184002	          0.00000000	         -0.04797529	          0.98870671	         -6.32918211	         -0.06069631	         -0.00258134	          0.00000000	         -0.00218488	          0.00000000	         -1.66307190	          0.00000000	          0.00000000	          0.00576712	          0.00000000	
          1.64500000	         49.58589895	        757.80738046	         46.20885753	         -0.32076233	          0.00000000	         -0.04805796	          1.29588508	         -8.04988338	         -0.06835636	         -0.00296089	          0.00000000	         -0.00249875	          0.00000000	         -1.60425892	          0.00000000	          0.00000000	          0.00730706	          0.00000000	
          1.65000000	         54.53501489	        765.49330099	         46.14828600	         -0.31978987	          0.00000000	         -0.04806915	          1.61507378	         -9.74033335	         -0.07187103	         -0.00318759	          0.00000000	         -0.00268004	          0.00000000	         -1.58023598	          0.00000000	          0.00000000	          0.00880725	          0.00000000	
          1.65500000	         59.59007178	        772.32846324	         45.84382931	         -0.31890014	          0.00000000	         -0.04801316	          1.91362622	        -11.17513014	         -0.06848802	         -0.00314798	          0.00000000	         -0.00263220	          0.00000000	         -1.58905808	          0.00000000	          0.00000000	          0.01006044	          0.00000000	
          1.66000000	         64.73009580	        778.17150422	         45.31771549	         -0.31807317	          0.00000000	         -0.04789653	          2.14317898	        -12.03431579	         -0.05476613	         -0.00269798	          0.00000000	         -0.00223299	          0.00000000	         -1.62611028	          0.00000000	          0.00000000	          0.01077390	          0.00000000	
          1.66500000	         69.94131995	        782.89481956	         44.59708904	         -0.31729204	          0.00000000	         -0.04772638	          2.23682475	        -11.88994340	         -0.02661428	         -0.00166353	          0.00000000	         -0.00133507	          0.00000000	         -1.68500062	          0.00000000	          0.00000000	          0.01055773	          0.00000000	
          1.67000000	         75.21685935	        786.38335680	         43.70758087	         -0.31654333	          0.00000000	         -0.04750971	          2.10699076	        -10.19844813	          0.02056742	          0.00015473	          0.00000000	          0.00022977	          0.00000000	         -1.75875408	          0.00000000	          0.00000000	          0.00891857	          0.00000000	
          1.67500000	         80.55030229	        788.53275960	         42.66824801	         -0.31581672	          0.00000000	         -0.04725241	          1.64467915	         -6.30300969	          0.09160506	          0.00297102	          0.00000000	          0.00264162	          0.00000000	         -1.84060507	          0.00000000	          0.00000000	          0.00526259	          0.00000000	
          1.68000000	         85.92765491	        789.24503053	         41.49026155	         -0.31510454	          0.00000000	         -0.04695872	          0.72092468	          0.54879605	          0.19108225	          0.00699626	          0.00000000	          0.00607682	          0.00000000	         -1.92440313	          0.00000000	          0.00000000	         -0.00108750	          0.00000000	
          1.68500000	         91.32179921	        788.42297122	         40.17812647	         -0.31440165	          0.00000000	         -0.04663316	         -0.80846956	         11.16568095	          0.32263915	          0.01241031	          0.00000000	          0.01068417	          0.00000000	         -2.00500948	          0.00000000	          0.00000000	         -0.01085557	          0.00000000	
          1.69000000	         96.69070363	        785.96680134	         38.73157836	         -0.31370565	          0.00000000	         -0.04628136	         -3.09366890	         26.34439384	          0.48799584	          0.01932233	          0.00000000	          0.01655111	          0.00000000	         -2.07827919	          0.00000000	          0.00000000	         -0.02474892	          0.00000000	
          1.69500000	        101.97699339	        781.77330198	         37.14804299	         -0.31301699	          0.00000000	         -0.04590819	         -6.27562614	         46.76476723	          0.68566613	          0.02771781	          0.00000000	          0.02365868	          0.00000000	         -2.14105531	          0.00000000	          0.00000000	         -0.04336168	          0.00000000	
          1.70000000	        107.10835577	        775.73169598	         35.42563260	         -0.31233874	          0.00000000	         -0.04551751	        -10.46354478	         72.84047422	          0.90934727	          0.03739116	          0.00000000	          0.03182430	          0.00000000	         -2.19087443	          0.00000000	          0.00000000	         -0.06703833	          0.00000000	
          1.70500000	        111.99915694	        767.72179323	         33.56623079	         -0.31167550	          0.00000000	         -0.04511278	        -15.70365452	        104.51913493	          1.14600482	          0.04786430	          0.00000000	          0.04063284	          0.00000000	         -2.22575983	          0.00000000	          0.00000000	         -0.09569157	          0.00000000	
